<svg xmlns="http://www.w3.org/2000/svg" viewBox="0 0 310 786" role="img" aria-hidden="true" focusable="false">
  <path fill="currentColor" d="M156.5 777.3C129.4 775 104 765.5 104 757.8C104 756.6 102 755.1 97.7 753.2C89.3 749.3 88.5 747.6 89.4 732.7C89.7 726.6 90.2 719.7 90.5 717.5L91.1 713.5L81.3 706.5C75.9 702.6 68.8 696.7 65.5 693.3C62.1 689.9 58.2 686.8 56.8 686.5C52.8 685.5 38.7 671.1 32.7 661.9C15.1 634.8 8 608.9 8 572C8 549.7 9.6 538.2 18.5 494C19.3 489.9 20.4 481.6 21 475.7C22.9 454.6 30.3 428.1 38.7 411.7C43.9 401.7 49.1 394.3 57.1 385.5C71.7 369.5 78.5 357.1 80.1 343.4C80.7 338.5 81.5 331.7 81.9 328.2C82.3 324.7 82.3 321.7 81.8 321.4C81.3 321.1 81 318 81.1 314.7C81.2 311.3 81 307.1 80.6 305.3C79.8 301.6 81.4 294.4 83.4 293.3C85.3 292.2 85.7 286.6 84.1 284.6C83.1 283.4 82.7 280.1 82.7 273.7C82.8 265.4 82.5 264.2 80.4 261.7C77.4 258.2 76.6 255 77.4 250.6C78.8 243.4 84.7 241 101.6 241C112.3 241 114.1 240.8 113.6 239.5C113.3 238.7 112.8 234.1 112.4 229.3C111.9 221.2 112 220.1 114.4 215.5C115.8 212.8 116.8 210.6 116.7 210.5C116.6 210.5 112 209.7 106.5 208.8C94.8 206.8 80.3 202.1 74.8 198.5C71.3 196.2 70.9 195.5 71.2 192.3C71.4 189.8 72.3 188.1 74 186.9C78 184 88.6 182.8 100.1 184C111.2 185.1 132.9 190.3 137.2 192.8C140.2 194.6 142 198.5 142 203.5C142 207.7 140.3 209.7 135.5 211.3C132 212.4 131.1 213.5 128.2 219C124.9 225.6 124.6 229.1 126.6 238.7C127.1 241.2 128.3 241.1 142 238.1L149.5 236.4L149.8 228C150.2 217.3 148.2 187.2 146.9 184.8C146.4 183.8 144.9 182.3 143.6 181.5C141.5 180.1 140.9 180.2 135.8 182.5C129.8 185.3 122.5 186.6 118.7 185.6C113.4 184.3 104 166.9 104 158.4C104 155.9 104.4 153.1 105 152.1C106.2 149.8 113 147 117.3 147C119.4 147 120.9 146.3 121.8 145C122.8 143.3 124.1 143 130.1 143C136.4 143 137.1 142.8 136 141.5C134.2 139.4 133.6 127.3 134.9 122.3C136.8 115.5 140.3 112 145.5 112C154.3 112 158.5 115.1 163.7 125.5L167.3 132.5L167.6 149.5C168 172.5 168 173.8 168.1 204C168.2 218.6 168.4 230.7 168.6 230.9C168.7 231.1 171 230.8 173.5 230.4L178.1 229.5L178.1 203.5C178 189.2 177.6 174.8 177 171.5C176.4 168.2 175.7 149.5 175.5 130C175.2 110.5 174.5 91.4 173.9 87.6C172.5 78.8 169.7 75.6 158.6 69.9C154.2 67.6 147.3 63.6 143.5 61C139.7 58.4 133.7 54.9 130.3 53.1C123 49.5 121 46.4 120.3 38.1C119.7 31.1 121.6 25 126.3 17.8C131.1 10.7 134.8 8.9 147 8.3C170.1 7.1 187 15.8 195.8 33.4C200.6 43.1 200.3 53.1 194.9 58.2C191.3 61.7 188 60 188 54.8C188 48.2 176.3 35.8 166.8 32.4C161.8 30.6 149.3 30.1 140.2 31.4L134 32.3L134 29.6C134 26.7 134.5 26.5 145.1 25.1C152.2 24.1 169.9 25.2 174 26.8C175.4 27.3 178.7 29.4 181.4 31.5C184 33.5 186.4 35 186.6 34.8C187.5 33.8 178.9 24.9 174.5 22.2C166.2 17.2 160.5 15.6 149.8 15.6C138.7 15.5 136.7 16.4 131.3 24.3C128.7 28.1 128.2 29.7 128.7 32.5C129.1 34.8 128.9 36 128.1 36C126.5 36 126.7 39.2 128.6 41.8C129.4 43 132.7 45.3 135.9 46.9C139.1 48.5 145.8 52.5 150.6 55.8C155.5 59.1 161.4 62.7 163.7 63.9C170 67 176 73.2 176 76.3C176 77.8 176.4 79 177 79C178.2 79 179.6 84.7 180.6 93.5L181.4 100.5L182.6 89C184.5 70.8 187.7 61 191.6 61C194.7 61 194.7 62.9 191.6 72.2C189.6 78 188.8 83.9 187.6 101C185.9 123.8 186.1 134 189.5 180C190.3 191.3 191 206.7 191 214.4C191 226.6 191.2 228.1 192.6 227.6C193.5 227.3 195.3 227 196.7 227C199.1 227 199.2 226.9 198.6 220.8C193.1 161.6 193.8 137.8 202.1 103.5C203.3 98.5 205.1 92.9 206.1 91C208.5 86.1 214.7 80.5 220 78.1C229.4 74 243.8 74.6 248.7 79.2C254.4 84.5 249.3 107.3 241 113.7C237.8 116.2 232.1 116.3 225 114C218.1 111.8 218 111.8 214.8 113.7C211.7 115.5 211.3 116.3 209.2 126C205.9 140.6 205.6 183.6 208.5 209.3L210.4 226.1L216.1 225.5C224.3 224.5 232.6 226.5 236.3 230.2C239.1 233 239.3 233.4 238.7 239.5C238.3 243.1 237.4 247.2 236.6 248.8C235.7 250.6 235.5 252.1 236.1 253.1C236.6 253.9 237 259 237 264.5C237 272.4 236.6 275.4 235.1 278.3C234 280.5 233.6 282.3 234.2 282.6C234.7 282.9 235 285.4 234.9 288.1C234.7 292.1 235.1 293.4 237.1 295.6C239 297.7 239.5 299.2 239.5 303.6L239.5 309L246.3 309C254.5 309 258.5 310.5 264.4 316C271.1 322.2 273.3 328.7 272.8 341.5L272.5 351.5L264.8 367.5C256.3 385.1 254.7 389.1 248.8 406L244.8 417.5L245.4 434C245.7 443.1 246.3 458.2 246.7 467.7C247.2 483.1 247.5 484.9 249.1 485.3C251.6 486 255 491.9 255 495.6C255 497.7 256.8 501.3 260.3 506.6C263.2 510.9 268.1 519.9 271.3 526.5C279.3 543.1 280.6 545.4 282.1 546.1C291.1 550.1 293.3 553.3 293.4 562.4C293.5 567 292.8 570 290.8 574.5C284.8 588 284.7 607.6 290.3 628.7C297.2 654.3 302 682.8 302 698.5C302 716.5 298.8 725.9 289 736.3C280.5 745.5 272.6 749.3 262.7 749.3C258.7 749.3 253.7 748.6 251.4 747.7C247.3 746.2 247.2 746.2 246.2 748.5C244.9 751.3 237.6 757.2 233.2 759C231.5 759.7 230 760.9 230 761.6C230 762.4 228.1 765.1 225.9 767.5C222.5 771.1 220.4 772.4 215.1 774C204.8 777 173.4 778.8 156.5 777.3ZM193.4 770C206.7 769 215.9 767 217.9 764.7C218.8 763.5 218 763.5 213.2 764.3C206.7 765.3 164.7 764.5 148.5 763C139.3 762.1 118.2 758.8 112.5 757.4C107.5 756.2 118.4 761.2 126.5 763.9C144.5 769.8 167.2 771.9 193.4 770ZM215 757.4C219.5 756.6 225.5 754.8 228.4 753.4C234 750.8 240.6 745 239.9 743.4C239.7 742.9 237.1 740.6 234.1 738.4C229 734.6 228.4 734.3 225.5 735.4C218.3 738 173.7 735 137.6 729.5C132.1 728.7 121.7 727.5 114.6 726.9C107.4 726.3 100 725.5 98.2 725C94.6 724.1 94.6 724 95 735.5C95.2 745.1 98.7 747.1 122.9 752C154 758.2 197.3 760.8 215 757.4ZM270.6 738C278 734.3 287.2 725.2 290.6 718.4C296.5 706.4 294.1 676.9 283.8 634.5C281.6 625.2 280.5 617.9 280.1 609.1L279.5 596.6L276.8 600.6C271.1 609.4 263.3 617.5 248.7 630.1C231.6 644.8 215.9 661.2 209.4 671.1C204.4 678.7 195 697.6 191.9 706.1C190.1 711 189.3 712 187.4 712C185.5 712 185 711.5 185 709.4C185 703.4 200.5 669.7 207.6 660.4C215.2 650.3 225.8 639.5 241.8 625.2C264 605.5 269.1 599.2 278.5 580.3C282.6 572 286 564 286 562.7C286 561.4 285 559.1 283.9 557.6C281.8 555 281.7 554.9 279.8 556.7C276.7 559.5 267 572.6 261.7 581.1C258.5 586.4 253.1 592.6 244.3 601.1C211.2 633.4 207.5 637.4 199 650C194.5 656.9 189 666.1 186.8 670.5C180.2 683.8 172 702.1 169 709.8L166.2 717L168.8 717C170.3 717 180 718.3 190.5 720C200.9 721.6 209.6 722.7 209.8 722.5C210 722.3 207.7 721.4 204.6 720.4C199.8 718.9 199 718.3 199 716.2C199 713.8 199.2 713.8 205.3 714.2C213.2 714.7 225.7 720.4 234.9 727.9C241.7 733.5 246.6 736.3 254.5 739.1C261.4 741.6 263.8 741.5 270.6 738ZM210.6 730.3C214.9 728.7 150.5 720.1 121.2 718.4C109.2 717.8 109 717.7 109 715.4C109 713.2 109.4 713 113.8 713C120.2 713 149.3 714.8 155.2 715.6L160 716.2L160 712.7C160 709 163.9 698.6 171.3 682.8L175.8 673.1L166.2 667.4C155.5 661.1 147.3 653.3 128 631.3C115 616.5 112.4 612.9 107 602.3C103 594.3 98.2 577 96.1 563C90.3 523.4 90.5 525.8 90.6 495C90.7 477.9 91.2 461.5 92 456C95.6 428.2 106.7 375.3 111.6 362.5C112.1 361.3 110.6 362 106.9 364.8C103.8 367.1 96.7 371.2 90.9 373.9C69.5 384 60 392.3 48.4 411.4C41.3 423.1 34.3 442.6 30 463C27.8 473.3 25.5 511.2 26.5 521C26.8 524 27.5 534.8 28 545C30.7 592.3 31.9 603.3 35.5 615.7C46.3 652.6 57.7 675.1 73.3 689.7C76.2 692.4 83.3 698.1 89.2 702.4C98.6 709.2 100 710.7 100 713.1C100 715 99.5 716 98.5 716C95.8 716 96.9 717.8 100.2 718.9C102 719.4 109.6 720.3 117 720.9C124.4 721.5 139.9 723.1 151.5 724.5C163.1 725.9 180.6 727.9 190.5 728.9C200.4 729.9 208.6 730.8 208.7 730.9C208.8 730.9 209.6 730.7 210.6 730.3ZM43.5 660.1C38.9 650.9 27.5 616.4 26.1 607.5C25.1 600.9 23.4 578 20.9 539C20.3 529.4 19.7 521.4 19.6 521.3C18.4 520 15.7 546.1 15.3 563.2C14.4 597.7 18.4 618 31 643C34.9 650.8 45.5 667 46.7 667C46.9 667 45.5 663.9 43.5 660.1ZM193.5 642.4C201.7 630.2 213.2 617.9 236.3 596.6C242.8 590.7 249.2 584.2 250.7 582.4L253.3 578.9L250.2 571.1C248.5 566.8 245.3 556.5 243 548.4C240.8 540.2 237.4 529 235.5 523.5C231.6 512.1 224.9 488.9 222.6 478.7C218.8 462.2 194.4 407.1 181.2 385C178.1 379.8 175.3 375.3 175 375C174.7 374.7 172.9 371.4 171 367.5C169.1 363.6 167.3 360.3 167 360C165.9 358.9 157 340.2 155 334.7C153.5 330.7 152.4 329 151.4 329.4C150.7 329.7 145.6 330.2 140 330.6L130 331.3L127.9 335.9C119 355.5 103.9 421.7 99 462C97.5 475.1 97.3 521.3 98.7 528.5C99.4 531.8 100.9 541.5 102 550C104.1 566.2 107.4 581.8 110.9 591.1C117.7 609.1 152.5 649.5 171 660.8L179.4 665.9L182.6 660C184.3 656.7 189.3 648.8 193.5 642.4ZM263.7 564.7C266 561.8 269.5 558 271.3 556.2L274.8 552.8L272.9 549.2C271.9 547.2 268.8 539.9 266 533C260 518 254.8 508.5 254.2 511.5C254 512.6 252.6 517.8 250.9 523.2C249.3 528.5 248 533.8 248 535C248 539.1 257.7 570 258.9 570C259.3 570 261.4 567.6 263.7 564.7ZM247.4 511.2C250.3 501.5 250.5 498.9 248.6 494.5L247.3 491.5L246.5 495.5C246.1 497.7 245 503.3 244 507.9C242.4 515.8 242.3 520 244 520C244.4 520 245.9 516.1 247.4 511.2ZM238.9 495.2C239.9 488.8 239 455.8 236.9 423C236.3 413.9 235.5 396.1 235 383.5C234.5 370.9 233.4 355.1 232.5 348.5C230.8 336.2 228.2 321.8 227.4 321.1C227.1 320.8 217.4 321.8 205.7 323.3C194.1 324.8 179 326.5 172.2 327.1C163 328 160 328.6 160 329.7C160 332.7 175 359.5 185 374.5C192.9 386.4 198.5 396.7 207.3 416C223.7 452 229.6 468.9 236.7 499.8C237.5 503 237.7 502.4 238.9 495.2ZM249.1 379.8C251.8 373.4 256.4 363.4 259.4 357.7C265.6 345.5 266.7 340.6 264.5 333.4C262.5 326.4 259.3 322.1 253.6 318.2C247.2 313.9 240.7 313.7 236.4 317.7C234.8 319.2 233.6 321.1 233.8 321.9C234.5 325.8 235 326 237.4 323.5C240.7 320.2 250.3 319.9 254.2 323C260.9 328.2 260.8 339.8 253.8 354C251.3 359.2 248.5 365.3 247.6 367.4C245.5 372.6 242 386.6 242 390C242 393 243.2 394.9 243.8 392.8C244.1 392.1 246.4 386.2 249.1 379.8ZM101.8 359.8C104.8 358 108.9 354.6 111 352.2C113.1 349.9 115.1 348 115.6 348C116.1 348 117.9 344.4 119.6 340.1L122.6 332.2L113.8 331.5C108.9 331.1 101.7 329.9 97.7 328.8C86.8 325.9 87.5 325.6 87.3 333C86.8 345.9 84.9 358.2 82.6 364L80.2 369.8L88.3 366.4C92.7 364.6 98.8 361.6 101.8 359.8ZM250.6 341.1C252.7 336.1 252.4 332.3 249.5 329.5C246.2 326.1 243.8 326.4 240.1 330.5C236.4 334.7 236.5 333.7 239 347.4C240.1 353.4 241 358.6 241 358.9C241.1 359.7 248.7 345.4 250.6 341.1ZM141 323.9C146.5 323.2 151 322.3 151 321.7C151 321.2 152.5 321 154.2 321.3C156 321.5 167.4 320.7 179.5 319.3C191.6 318 207.7 316.3 215.3 315.6C222.9 314.9 229.3 314 229.6 313.8C230.8 312.5 202.6 314.3 192.4 316.1C186.2 317.2 172.5 318.7 161.9 319.5C127.9 322.1 108.2 321.2 94.8 316.5C87.9 314.2 87 314.1 89.2 316.4C96.8 323.9 116.1 326.7 141 323.9ZM155.2 313.5C166.4 312.7 179.4 311.3 184.1 310.4C188.7 309.6 200.4 308.5 210.1 308C233.2 307 237.5 305.1 230.9 299C227 295.4 221.7 295.1 208.5 297.5C172.1 304.3 148 307 124.4 307C107.4 307 101.1 306.1 93.3 302.6C90.4 301.2 87.8 300.5 87.6 300.9C86.6 302.4 90.2 306.1 94.8 308.4C107.4 314.8 121.4 316 155.2 313.5ZM146.1 299.9C156.7 299.1 182.2 295.4 210 290.7C211.4 290.5 207.8 290.2 202 290.2C196.2 290.1 189.7 290.5 187.5 291C177.6 293.5 160.6 295.1 138 295.7C112 296.3 103.4 295.6 95.3 292L91 290.1L92.6 292.5C94.3 295.1 102.5 299 108.5 300.1C114.8 301.2 131.5 301.1 146.1 299.9ZM228.6 288.9C231 286.9 229.1 286.1 225.5 287.6C223.6 288.4 220.4 289.1 218.3 289.1L214.5 289.3L218 290C222.1 290.9 226.8 290.4 228.6 288.9ZM160 287.9C165.7 287.4 174.5 286 179.7 284.9C186.2 283.6 193.3 283 201.9 283C208.8 283 216.3 282.5 218.5 281.9C228.2 279.3 233.7 268.7 231.4 257.1C230.8 254.1 230.6 254 225.6 254C222.8 253.9 217.8 253.3 214.5 252.5C207.4 250.8 189.8 250.6 181.5 252.1C178.2 252.7 168.8 255.7 160.5 258.7C138.9 266.6 126.4 269.3 111 269.4C104.1 269.5 96.7 269.3 94.5 269C90.6 268.5 90.5 268.5 89.9 272.2C89.6 274.3 89.8 277 90.4 278.2C91.9 281.1 101.1 286.7 106.4 287.9C112.1 289.2 147.7 289.2 160 287.9ZM135.5 258.7C142.7 256.8 152.3 253.8 157 252C173.7 245.6 177.4 244.9 194.5 244.3C207.1 243.9 211.9 244.1 217.3 245.4C230.3 248.5 232.6 247.4 232.1 238.2C232 235.2 225.2 232.1 219 232C211.9 232 192.7 234.1 190.8 235.1C189.8 235.6 185.3 236.4 180.8 236.9C176.2 237.5 165.5 239.7 156.9 241.9C138.6 246.6 125.3 248.2 106.3 247.8C91.8 247.5 86.8 248.7 85.3 252.7C84.4 255.1 91.5 260.6 97 261.9C105.4 263.8 121.2 262.5 135.5 258.7ZM163.4 231.5C163 230.7 162.4 230 161.9 230C161.4 230 161 230.7 161 231.5C161 232.3 161.7 233 162.5 233C163.4 233 163.7 232.4 163.4 231.5ZM184.7 210.3C184.5 207.1 184.4 209.4 184.4 215.5C184.4 221.6 184.5 224.2 184.7 221.3C184.9 218.4 184.9 213.5 184.7 210.3ZM130.3 206C135.7 206 135.6 201.4 130.2 198.6C128.7 197.9 121.7 195.8 114.5 194C100.7 190.4 84.5 189.3 80.6 191.6C79 192.6 79.7 193.1 86.1 195.8C93.1 198.6 110.8 203 121.2 204.5C125.3 205 126 205.5 126 207.3C126.1 209.3 126.2 209.3 127.1 207.8C127.6 206.8 129.1 206 130.3 206ZM157 184C157 181.8 156.5 181.1 154.4 180.7C152.2 180.3 151.9 180.5 152.4 182.4C152.7 183.5 153 185.2 153 186.2C153 187.3 153.6 187.7 155 187.3C156.4 186.9 157 185.9 157 184ZM128.2 178.3C133.8 176.3 134.1 175.7 130.2 174.1C126.4 172.5 123.4 167 121.9 158.7C121 153.8 120.2 152 119.1 152C116.2 152.1 110.5 155.5 110.2 157.3C109.5 160.9 120.1 180 122.8 180C123.2 180 125.6 179.2 128.2 178.3ZM161.4 174.7C162.7 173.8 163 172.7 162.6 171.3C161 166.4 144.9 153.3 139.8 152.8C137.7 152.5 137.5 152.9 137.2 157.2C136.9 161.8 138.1 168.2 139.8 170.8C140.5 171.8 150.3 174.4 159.1 175.9C159.4 176 160.4 175.4 161.4 174.7ZM131.1 156.1C131.5 148.7 130.9 147.2 128.1 148.9C127 149.6 127 150.7 128 155.1C130.5 166.3 130.7 166.4 131.1 156.1ZM160.2 155.3C159.6 155 159 153.6 159 152C159 148.9 157.6 148 152.3 148L148.8 148L154.5 152.5C157.7 155 160.6 156.7 160.9 156.4C161.2 156 160.9 155.5 160.2 155.3ZM160.7 137.5C159.4 129.5 152.1 118 148.3 118C146.4 118 145 122.2 145 128.1C145 134 146.9 136.2 154.1 139C160.8 141.7 161.4 141.6 160.7 137.5ZM220.4 106.2L228 106.5L228 94.7L228 83L223.1 85.4C216.4 88.8 211.4 95 209 102.8C207.9 106.3 207 109.4 207 109.6C207 109.9 208.3 109.1 209.9 107.9C212.3 106.1 213.8 105.9 220.4 106.2ZM240.6 99.8C241.9 97.2 243.3 93.1 243.6 90.7C244.3 85.9 243.3 84.5 238.2 83.1C235.6 82.3 235.1 82.5 234.6 84.3C233.8 87.2 233.9 93.3 234.6 100.9C235.4 108 236.5 107.8 240.6 99.8Z"/>
</svg>
